<?xml version="1.0" encoding="utf-8"?><svg viewBox="0 0 60 60" xmlns="http://www.w3.org/2000/svg" xmlns:xlink="http://www.w3.org/1999/xlink"><style>:root>svg{display:none}:root>svg:target{display:block}</style><svg fill="none" viewBox="0 0 60 60" id="lamp" xmlns="http://www.w3.org/2000/svg"><path fill-rule="evenodd" clip-rule="evenodd" d="M29.433 10c-8.87 0-15.276 6.766-16.292 14.033-.634 4.844.896 9.566 4.075 13.138 2.798 3.059 4.328 7.145 4.328 11.354l-.012 6.63A4.838 4.838 0 0026.373 60h6.24a4.838 4.838 0 004.84-4.845l.013-6.63c0-4.331 1.398-8.295 4.075-11.097A15.952 15.952 0 0046 26.332C45.988 17.267 38.47 10 29.433 10zm5.594 45.155c0 1.273-1.016 2.3-2.295 2.3h-6.24a2.281 2.281 0 01-2.294-2.3V52.22h10.817v2.936h.012zm4.734-19.513c-3.18 3.315-4.842 7.903-4.842 12.883v1.15H24.102v-1.15c0-4.723-1.913-9.432-5.093-13.005-2.796-3.058-3.944-7.01-3.442-11.096.897-6.117 6.455-11.867 13.878-11.867 7.77 0 14.01 6.252 14.01 13.775 0 3.438-1.28 6.754-3.694 9.31z" fill="url(#apaint0_linear)"/><path fill-rule="evenodd" clip-rule="evenodd" d="M28 6h3V0h-3v6z" fill="url(#apaint1_linear)"/><path fill-rule="evenodd" clip-rule="evenodd" d="M45 12.212L46.74 14 51 9.788 49.249 8 45 12.212z" fill="url(#apaint2_linear)"/><mask id="aa" maskUnits="userSpaceOnUse" x="0" y="27" width="60" height="3"><path fill-rule="evenodd" clip-rule="evenodd" d="M.01 27.028H60v2.95H.01v-2.95z" fill="#fff"/></mask><g mask="url(#aa)" fill-rule="evenodd" clip-rule="evenodd"><path d="M53.608 29.979H60v-2.95h-6.392v2.95z" fill="url(#apaint3_linear)"/><path d="M.01 29.979h6.382v-2.95H.01v2.95z" fill="url(#apaint4_linear)"/></g><path fill-rule="evenodd" clip-rule="evenodd" d="M9.751 8L8 9.788 12.26 14 14 12.212 9.751 8z" fill="url(#apaint5_linear)"/><defs><linearGradient id="apaint0_linear" x1="13.585" y1="11.771" x2="13.585" y2="60" gradientUnits="userSpaceOnUse"><stop stop-color="#FF955D"/><stop offset="1" stop-color="#FF4CAB"/></linearGradient><linearGradient id="apaint1_linear" x1="28.053" y1=".213" x2="28.053" y2="6" gradientUnits="userSpaceOnUse"><stop stop-color="#FF955D"/><stop offset="1" stop-color="#FF4CAB"/></linearGradient><linearGradient id="apaint2_linear" x1="45.106" y1="8.213" x2="45.106" y2="14" gradientUnits="userSpaceOnUse"><stop stop-color="#FF955D"/><stop offset="1" stop-color="#FF4CAB"/></linearGradient><linearGradient id="apaint3_linear" x1="53.721" y1="27.133" x2="53.721" y2="29.979" gradientUnits="userSpaceOnUse"><stop stop-color="#FF955D"/><stop offset="1" stop-color="#FF4CAB"/></linearGradient><linearGradient id="apaint4_linear" x1=".122" y1="27.133" x2=".122" y2="29.979" gradientUnits="userSpaceOnUse"><stop stop-color="#FF955D"/><stop offset="1" stop-color="#FF4CAB"/></linearGradient><linearGradient id="apaint5_linear" x1="8.106" y1="8.213" x2="8.106" y2="14" gradientUnits="userSpaceOnUse"><stop stop-color="#FF955D"/><stop offset="1" stop-color="#FF4CAB"/></linearGradient></defs></svg></svg>